<?xml version="1.0" encoding="us-ascii" standalone="no"?><svg xmlns="http://www.w3.org/2000/svg" xmlns:xlink="http://www.w3.org/1999/xlink" contentStyleType="text/css" height="735px" preserveAspectRatio="none" style="width:1788px;height:735px;background:#FFFFFF;" version="1.1" viewBox="0 0 1788 735" width="1788px" zoomAndPan="magnify"><defs/><g><!--class JobSystem--><g id="elem_JobSystem"><rect codeLine="1" fill="#F1F1F1" height="276.1563" id="JobSystem" rx="2.5" ry="2.5" style="stroke:#181818;stroke-width:0.5;" width="689" x="895.5" y="7"/><ellipse cx="1197.25" cy="23" fill="#ADD1B2" rx="11" ry="11" style="stroke:#181818;stroke-width:1.0;"/><path d="M1199.5938,18.6719 C1198.6563,18.2344 1198.0625,18.0938 1197.1875,18.0938 C1194.5625,18.0938 1192.5625,20.1719 1192.5625,22.8906 L1192.5625,24.0156 C1192.5625,26.5938 1194.6719,28.4844 1197.5625,28.4844 C1198.7813,28.4844 1199.9375,28.1875 1200.6875,27.6406 C1201.2656,27.2344 1201.5938,26.7813 1201.5938,26.3906 C1201.5938,25.9375 1201.2031,25.5469 1200.7344,25.5469 C1200.5156,25.5469 1200.3125,25.625 1200.125,25.8125 C1199.6719,26.2969 1199.6719,26.2969 1199.4844,26.3906 C1199.0625,26.6563 1198.375,26.7813 1197.6094,26.7813 C1195.5625,26.7813 1194.2656,25.6875 1194.2656,23.9844 L1194.2656,22.8906 C1194.2656,21.1094 1195.5156,19.7969 1197.25,19.7969 C1197.8281,19.7969 1198.4375,19.9531 1198.9063,20.2031 C1199.3906,20.4844 1199.5625,20.7031 1199.6563,21.1094 C1199.7188,21.5156 1199.75,21.6406 1199.8906,21.7656 C1200.0313,21.9063 1200.2656,22.0156 1200.4844,22.0156 C1200.75,22.0156 1201.0156,21.875 1201.1875,21.6563 C1201.2969,21.5 1201.3281,21.3125 1201.3281,20.8906 L1201.3281,19.4688 C1201.3281,19.0313 1201.3125,18.9063 1201.2188,18.75 C1201.0625,18.4844 1200.7813,18.3438 1200.4844,18.3438 C1200.1875,18.3438 1199.9844,18.4375 1199.7656,18.75 L1199.5938,18.6719 Z " fill="#000000"/><text fill="#000000" font-family="sans-serif" font-size="14" lengthAdjust="spacing" textLength="77" x="1217.75" y="27.8467">JobSystem</text><line style="stroke:#181818;stroke-width:0.5;" x1="896.5" x2="1583.5" y1="39" y2="39"/><ellipse cx="906.5" cy="52.6484" fill="none" rx="3" ry="3" style="stroke:#038048;stroke-width:1.0;"/><text fill="#000000" font-family="sans-serif" font-size="14" lengthAdjust="spacing" text-decoration="underline" textLength="305" x="915.5" y="55.9951">NEXT_JOB_ID: std::atomic&lt;unsigned long&gt;</text><rect fill="none" height="6" style="stroke:#C82930;stroke-width:1.0;" width="6" x="903.5" y="65.9453"/><text fill="#000000" font-family="sans-serif" font-size="14" lengthAdjust="spacing" textLength="192" x="915.5" y="72.292">slaves: std::vector&lt;Slave&gt;</text><rect fill="none" height="6" style="stroke:#C82930;stroke-width:1.0;" width="6" x="903.5" y="82.2422"/><text fill="#000000" font-family="sans-serif" font-size="14" lengthAdjust="spacing" textLength="663" x="915.5" y="88.5889">queued_jobs: MessageQueue&lt;Slave::Message, std::priority_queue, Slave::CompareMessage&gt;</text><rect fill="none" height="6" style="stroke:#C82930;stroke-width:1.0;" width="6" x="903.5" y="98.5391"/><text fill="#000000" font-family="sans-serif" font-size="14" lengthAdjust="spacing" textLength="485" x="915.5" y="104.8857">completed_jobs: MessageQueue&lt;JobSystem::Message, std::queue&gt;</text><rect fill="none" height="6" style="stroke:#C82930;stroke-width:1.0;" width="6" x="903.5" y="114.8359"/><text fill="#000000" font-family="sans-serif" font-size="14" lengthAdjust="spacing" textLength="251" x="915.5" y="121.1826">history: std::vector&lt;HistoryEntry&gt;</text><rect fill="none" height="6" style="stroke:#C82930;stroke-width:1.0;" width="6" x="903.5" y="131.1328"/><text fill="#000000" font-family="sans-serif" font-size="14" lengthAdjust="spacing" textLength="174" x="915.5" y="137.4795">history_mtx: std::mutex</text><line style="stroke:#181818;stroke-width:0.5;" x1="896.5" x2="1583.5" y1="144.7813" y2="144.7813"/><ellipse cx="906.5" cy="158.4297" fill="#84BE84" rx="3" ry="3" style="stroke:#038048;stroke-width:1.0;"/><text fill="#000000" font-family="sans-serif" font-size="14" lengthAdjust="spacing" textLength="172" x="915.5" y="161.7764">enqueue(job: Job*): void</text><ellipse cx="906.5" cy="174.7266" fill="#84BE84" rx="3" ry="3" style="stroke:#038048;stroke-width:1.0;"/><text fill="#000000" font-family="sans-serif" font-size="14" lengthAdjust="spacing" textLength="285" x="915.5" y="178.0732">get_status(id: unsigned long): JobStatus</text><ellipse cx="906.5" cy="191.0234" fill="#84BE84" rx="3" ry="3" style="stroke:#038048;stroke-width:1.0;"/><text fill="#000000" font-family="sans-serif" font-size="14" lengthAdjust="spacing" textLength="271" x="915.5" y="194.3701">remove_entry(id: unsigned long): void</text><ellipse cx="906.5" cy="207.3203" fill="#84BE84" rx="3" ry="3" style="stroke:#038048;stroke-width:1.0;"/><text fill="#000000" font-family="sans-serif" font-size="14" lengthAdjust="spacing" textLength="242" x="915.5" y="210.667">add_slave(name: std::string): void</text><ellipse cx="906.5" cy="223.6172" fill="#84BE84" rx="3" ry="3" style="stroke:#038048;stroke-width:1.0;"/><text fill="#000000" font-family="sans-serif" font-size="14" lengthAdjust="spacing" textLength="416" x="915.5" y="226.9639">get_completed(n_jobs: unsigned long): std::vector&lt;Job*&gt;</text><ellipse cx="906.5" cy="239.9141" fill="#84BE84" rx="3" ry="3" style="stroke:#038048;stroke-width:1.0;"/><text fill="#000000" font-family="sans-serif" font-size="14" lengthAdjust="spacing" textLength="321" x="915.5" y="243.2607">current_history(): std::vector&lt;HistoryEntry&gt;</text><ellipse cx="906.5" cy="256.2109" fill="#84BE84" rx="3" ry="3" style="stroke:#038048;stroke-width:1.0;"/><text fill="#000000" font-family="sans-serif" font-size="14" lengthAdjust="spacing" textLength="75" x="915.5" y="259.5576">join(): void</text><rect fill="#F24D5C" height="6" style="stroke:#C82930;stroke-width:1.0;" width="6" x="903.5" y="269.5078"/><text fill="#000000" font-family="sans-serif" font-size="14" lengthAdjust="spacing" textLength="369" x="915.5" y="275.8545">update_id_history(job: Job*, status: JobStatus): void</text></g><!--class Slave--><g id="elem_Slave"><rect codeLine="18" fill="#F1F1F1" height="129.4844" id="Slave" rx="2.5" ry="2.5" style="stroke:#181818;stroke-width:0.5;" width="1052" x="7" y="360"/><ellipse cx="509.75" cy="376" fill="#ADD1B2" rx="11" ry="11" style="stroke:#181818;stroke-width:1.0;"/><path d="M512.0938,371.6719 C511.1563,371.2344 510.5625,371.0938 509.6875,371.0938 C507.0625,371.0938 505.0625,373.1719 505.0625,375.8906 L505.0625,377.0156 C505.0625,379.5938 507.1719,381.4844 510.0625,381.4844 C511.2813,381.4844 512.4375,381.1875 513.1875,380.6406 C513.7656,380.2344 514.0938,379.7813 514.0938,379.3906 C514.0938,378.9375 513.7031,378.5469 513.2344,378.5469 C513.0156,378.5469 512.8125,378.625 512.625,378.8125 C512.1719,379.2969 512.1719,379.2969 511.9844,379.3906 C511.5625,379.6563 510.875,379.7813 510.1094,379.7813 C508.0625,379.7813 506.7656,378.6875 506.7656,376.9844 L506.7656,375.8906 C506.7656,374.1094 508.0156,372.7969 509.75,372.7969 C510.3281,372.7969 510.9375,372.9531 511.4063,373.2031 C511.8906,373.4844 512.0625,373.7031 512.1563,374.1094 C512.2188,374.5156 512.25,374.6406 512.3906,374.7656 C512.5313,374.9063 512.7656,375.0156 512.9844,375.0156 C513.25,375.0156 513.5156,374.875 513.6875,374.6563 C513.7969,374.5 513.8281,374.3125 513.8281,373.8906 L513.8281,372.4688 C513.8281,372.0313 513.8125,371.9063 513.7188,371.75 C513.5625,371.4844 513.2813,371.3438 512.9844,371.3438 C512.6875,371.3438 512.4844,371.4375 512.2656,371.75 L512.0938,371.6719 Z " fill="#000000"/><text fill="#000000" font-family="sans-serif" font-size="14" lengthAdjust="spacing" textLength="38" x="530.25" y="380.8467">Slave</text><line style="stroke:#181818;stroke-width:0.5;" x1="8" x2="1058" y1="392" y2="392"/><rect fill="none" height="6" style="stroke:#C82930;stroke-width:1.0;" width="6" x="15" y="402.6484"/><text fill="#000000" font-family="sans-serif" font-size="14" lengthAdjust="spacing" textLength="124" x="27" y="408.9951">name: std::string</text><rect fill="none" height="6" style="stroke:#C82930;stroke-width:1.0;" width="6" x="15" y="418.9453"/><text fill="#000000" font-family="sans-serif" font-size="14" lengthAdjust="spacing" textLength="138" x="27" y="425.292">handle: std::thread</text><rect fill="none" height="6" style="stroke:#C82930;stroke-width:1.0;" width="6" x="15" y="435.2422"/><text fill="#000000" font-family="sans-serif" font-size="14" lengthAdjust="spacing" textLength="145" x="27" y="441.5889">system: JobSystem*</text><line style="stroke:#181818;stroke-width:0.5;" x1="8" x2="1058" y1="448.8906" y2="448.8906"/><ellipse cx="18" cy="462.5391" fill="#84BE84" rx="3" ry="3" style="stroke:#038048;stroke-width:1.0;"/><text fill="#000000" font-family="sans-serif" font-size="14" lengthAdjust="spacing" textLength="1026" x="27" y="465.8857">Slave(name: std::string, job_waiting_mq: MessageQueue&lt;Slave::Message, std::priority_queue, Slave::CompareMessage&gt;*, system: JobSystem*)</text><rect fill="#F24D5C" height="6" style="stroke:#C82930;stroke-width:1.0;" width="6" x="15" y="475.8359"/><text fill="#000000" font-family="sans-serif" font-size="14" lengthAdjust="spacing" textLength="147" x="27" y="482.1826">WorkDaemon(): void</text></g><!--class HistoryEntry--><g id="elem_HistoryEntry"><rect codeLine="26" fill="#F1F1F1" height="80.5938" id="HistoryEntry" rx="2.5" ry="2.5" style="stroke:#181818;stroke-width:0.5;" width="148" x="1094" y="384"/><ellipse cx="1120.7" cy="400" fill="#ADD1B2" rx="11" ry="11" style="stroke:#181818;stroke-width:1.0;"/><path d="M1123.0438,395.6719 C1122.1063,395.2344 1121.5125,395.0938 1120.6375,395.0938 C1118.0125,395.0938 1116.0125,397.1719 1116.0125,399.8906 L1116.0125,401.0156 C1116.0125,403.5938 1118.1219,405.4844 1121.0125,405.4844 C1122.2313,405.4844 1123.3875,405.1875 1124.1375,404.6406 C1124.7156,404.2344 1125.0438,403.7813 1125.0438,403.3906 C1125.0438,402.9375 1124.6531,402.5469 1124.1844,402.5469 C1123.9656,402.5469 1123.7625,402.625 1123.575,402.8125 C1123.1219,403.2969 1123.1219,403.2969 1122.9344,403.3906 C1122.5125,403.6563 1121.825,403.7813 1121.0594,403.7813 C1119.0125,403.7813 1117.7156,402.6875 1117.7156,400.9844 L1117.7156,399.8906 C1117.7156,398.1094 1118.9656,396.7969 1120.7,396.7969 C1121.2781,396.7969 1121.8875,396.9531 1122.3563,397.2031 C1122.8406,397.4844 1123.0125,397.7031 1123.1063,398.1094 C1123.1688,398.5156 1123.2,398.6406 1123.3406,398.7656 C1123.4813,398.9063 1123.7156,399.0156 1123.9344,399.0156 C1124.2,399.0156 1124.4656,398.875 1124.6375,398.6563 C1124.7469,398.5 1124.7781,398.3125 1124.7781,397.8906 L1124.7781,396.4688 C1124.7781,396.0313 1124.7625,395.9063 1124.6688,395.75 C1124.5125,395.4844 1124.2313,395.3438 1123.9344,395.3438 C1123.6375,395.3438 1123.4344,395.4375 1123.2156,395.75 L1123.0438,395.6719 Z " fill="#000000"/><text fill="#000000" font-family="sans-serif" font-size="14" lengthAdjust="spacing" textLength="90" x="1137.3" y="404.8467">HistoryEntry</text><line style="stroke:#181818;stroke-width:0.5;" x1="1095" x2="1241" y1="416" y2="416"/><ellipse cx="1105" cy="429.6484" fill="none" rx="3" ry="3" style="stroke:#038048;stroke-width:1.0;"/><text fill="#000000" font-family="sans-serif" font-size="14" lengthAdjust="spacing" textLength="42" x="1114" y="432.9951">id: int</text><ellipse cx="1105" cy="445.9453" fill="none" rx="3" ry="3" style="stroke:#038048;stroke-width:1.0;"/><text fill="#000000" font-family="sans-serif" font-size="14" lengthAdjust="spacing" textLength="122" x="1114" y="449.292">status: JobStatus</text><line style="stroke:#181818;stroke-width:0.5;" x1="1095" x2="1241" y1="456.5938" y2="456.5938"/></g><!--class JobStatus--><g id="elem_JobStatus"><rect codeLine="31" fill="#F1F1F1" height="129.4844" id="JobStatus" rx="2.5" ry="2.5" style="stroke:#181818;stroke-width:0.5;" width="134" x="1620" y="80.5"/><ellipse cx="1649.85" cy="96.5" fill="#EB937F" rx="11" ry="11" style="stroke:#181818;stroke-width:1.0;"/><path d="M1648.6469,97.375 L1650.1,97.375 L1650.1,97.4844 C1650.1,97.8906 1650.1313,98.0469 1650.2094,98.2031 C1650.3656,98.4531 1650.6469,98.6094 1650.9438,98.6094 C1651.1938,98.6094 1651.4594,98.4688 1651.6156,98.25 C1651.7406,98.0938 1651.7719,97.9375 1651.7719,97.4844 L1651.7719,95.5625 C1651.7719,95.4063 1651.7719,95.3594 1651.7563,95.2031 C1651.6938,94.7344 1651.3813,94.4219 1650.9281,94.4219 C1650.6781,94.4219 1650.4125,94.5625 1650.2406,94.7813 C1650.1313,94.9531 1650.1,95.1094 1650.1,95.5625 L1650.1,95.6875 L1648.6469,95.6875 L1648.6469,93.2813 L1652.6313,93.2813 L1652.6313,94.1406 C1652.6313,94.5469 1652.6625,94.7188 1652.7406,94.875 C1652.9125,95.125 1653.1938,95.2813 1653.475,95.2813 C1653.7406,95.2813 1654.0063,95.1406 1654.1781,94.9219 C1654.2875,94.75 1654.3188,94.6094 1654.3188,94.1406 L1654.3188,91.5938 L1646.6938,91.5938 C1646.2563,91.5938 1646.1313,91.6094 1645.975,91.7031 C1645.725,91.8594 1645.5688,92.1563 1645.5688,92.4375 C1645.5688,92.7188 1645.7094,92.9688 1645.9281,93.1406 C1646.0844,93.25 1646.2719,93.2813 1646.6938,93.2813 L1646.9438,93.2813 L1646.9438,99.7969 L1646.6938,99.7969 C1646.2875,99.7969 1646.1313,99.8125 1645.975,99.9219 C1645.725,100.0938 1645.5688,100.3594 1645.5688,100.6563 C1645.5688,100.9219 1645.7094,101.1719 1645.9281,101.3281 C1646.0688,101.4531 1646.3031,101.5 1646.6938,101.5 L1654.6938,101.5 L1654.6938,98.9219 C1654.6938,98.4844 1654.6625,98.3438 1654.5844,98.1875 C1654.4125,97.9375 1654.1313,97.7813 1653.85,97.7813 C1653.5844,97.7813 1653.3188,97.8906 1653.1469,98.1406 C1653.0375,98.2969 1653.0063,98.4375 1653.0063,98.9219 L1653.0063,99.7969 L1648.6469,99.7969 L1648.6469,97.375 Z " fill="#000000"/><text fill="#000000" font-family="sans-serif" font-size="14" lengthAdjust="spacing" textLength="69" x="1667.15" y="101.3467">JobStatus</text><line style="stroke:#181818;stroke-width:0.5;" x1="1621" x2="1753" y1="112.5" y2="112.5"/><text fill="#000000" font-family="sans-serif" font-size="14" lengthAdjust="spacing" textLength="96" x="1626" y="129.4951">NEVER_SEEN,</text><text fill="#000000" font-family="sans-serif" font-size="14" lengthAdjust="spacing" textLength="62" x="1626" y="145.792">QUEUED,</text><text fill="#000000" font-family="sans-serif" font-size="14" lengthAdjust="spacing" textLength="68" x="1626" y="162.0889">RUNNING,</text><text fill="#000000" font-family="sans-serif" font-size="14" lengthAdjust="spacing" textLength="92" x="1626" y="178.3857">COMPLETED,</text><text fill="#000000" font-family="sans-serif" font-size="14" lengthAdjust="spacing" textLength="122" x="1626" y="194.6826">N_JOB_STATUSES</text><line style="stroke:#181818;stroke-width:0.5;" x1="1621" x2="1753" y1="201.9844" y2="201.9844"/></g><!--class MessageQueue--><g id="elem_MessageQueue"><rect codeLine="39" fill="#F1F1F1" height="162.0781" id="MessageQueue" rx="2.5" ry="2.5" style="stroke:#181818;stroke-width:0.5;" width="342" x="921" y="566"/><ellipse cx="1034.75" cy="582" fill="#ADD1B2" rx="11" ry="11" style="stroke:#181818;stroke-width:1.0;"/><path d="M1037.0938,577.6719 C1036.1563,577.2344 1035.5625,577.0938 1034.6875,577.0938 C1032.0625,577.0938 1030.0625,579.1719 1030.0625,581.8906 L1030.0625,583.0156 C1030.0625,585.5938 1032.1719,587.4844 1035.0625,587.4844 C1036.2813,587.4844 1037.4375,587.1875 1038.1875,586.6406 C1038.7656,586.2344 1039.0938,585.7813 1039.0938,585.3906 C1039.0938,584.9375 1038.7031,584.5469 1038.2344,584.5469 C1038.0156,584.5469 1037.8125,584.625 1037.625,584.8125 C1037.1719,585.2969 1037.1719,585.2969 1036.9844,585.3906 C1036.5625,585.6563 1035.875,585.7813 1035.1094,585.7813 C1033.0625,585.7813 1031.7656,584.6875 1031.7656,582.9844 L1031.7656,581.8906 C1031.7656,580.1094 1033.0156,578.7969 1034.75,578.7969 C1035.3281,578.7969 1035.9375,578.9531 1036.4063,579.2031 C1036.8906,579.4844 1037.0625,579.7031 1037.1563,580.1094 C1037.2188,580.5156 1037.25,580.6406 1037.3906,580.7656 C1037.5313,580.9063 1037.7656,581.0156 1037.9844,581.0156 C1038.25,581.0156 1038.5156,580.875 1038.6875,580.6563 C1038.7969,580.5 1038.8281,580.3125 1038.8281,579.8906 L1038.8281,578.4688 C1038.8281,578.0313 1038.8125,577.9063 1038.7188,577.75 C1038.5625,577.4844 1038.2813,577.3438 1037.9844,577.3438 C1037.6875,577.3438 1037.4844,577.4375 1037.2656,577.75 L1037.0938,577.6719 Z " fill="#000000"/><text fill="#000000" font-family="sans-serif" font-size="14" lengthAdjust="spacing" textLength="106" x="1055.25" y="586.8467">MessageQueue</text><line style="stroke:#181818;stroke-width:0.5;" x1="922" x2="1262" y1="598" y2="598"/><rect fill="none" height="6" style="stroke:#C82930;stroke-width:1.0;" width="6" x="929" y="608.6484"/><text fill="#000000" font-family="sans-serif" font-size="14" lengthAdjust="spacing" textLength="194" x="941" y="614.9951">messages_mtx: std::mutex</text><rect fill="none" height="6" style="stroke:#C82930;stroke-width:1.0;" width="6" x="929" y="624.9453"/><text fill="#000000" font-family="sans-serif" font-size="14" lengthAdjust="spacing" textLength="190" x="941" y="631.292">cv: std::condition_variable</text><rect fill="none" height="6" style="stroke:#C82930;stroke-width:1.0;" width="6" x="929" y="641.2422"/><text fill="#000000" font-family="sans-serif" font-size="14" lengthAdjust="spacing" textLength="181" x="941" y="647.5889">messages: Container&lt;T&gt;</text><line style="stroke:#181818;stroke-width:0.5;" x1="922" x2="1262" y1="654.8906" y2="654.8906"/><ellipse cx="932" cy="668.5391" fill="#84BE84" rx="3" ry="3" style="stroke:#038048;stroke-width:1.0;"/><text fill="#000000" font-family="sans-serif" font-size="14" lengthAdjust="spacing" textLength="99" x="941" y="671.8857">empty(): bool</text><ellipse cx="932" cy="684.8359" fill="#84BE84" rx="3" ry="3" style="stroke:#038048;stroke-width:1.0;"/><text fill="#000000" font-family="sans-serif" font-size="14" lengthAdjust="spacing" textLength="176" x="941" y="688.1826">send(val: const T&amp;): void</text><ellipse cx="932" cy="701.1328" fill="#84BE84" rx="3" ry="3" style="stroke:#038048;stroke-width:1.0;"/><text fill="#000000" font-family="sans-serif" font-size="14" lengthAdjust="spacing" textLength="81" x="941" y="704.4795">receive(): T</text><ellipse cx="932" cy="717.4297" fill="#84BE84" rx="3" ry="3" style="stroke:#038048;stroke-width:1.0;"/><text fill="#000000" font-family="sans-serif" font-size="14" lengthAdjust="spacing" textLength="316" x="941" y="720.7764">receive_n(n: unsigned long): std::vector&lt;T&gt;</text></g><!--class Job--><g id="elem_Job"><rect codeLine="49" fill="#F1F1F1" height="113.1875" id="Job" rx="2.5" ry="2.5" style="stroke:#181818;stroke-width:0.5;" width="355" x="1426.5" y="368"/><ellipse cx="1588.25" cy="384" fill="#ADD1B2" rx="11" ry="11" style="stroke:#181818;stroke-width:1.0;"/><path d="M1590.5938,379.6719 C1589.6563,379.2344 1589.0625,379.0938 1588.1875,379.0938 C1585.5625,379.0938 1583.5625,381.1719 1583.5625,383.8906 L1583.5625,385.0156 C1583.5625,387.5938 1585.6719,389.4844 1588.5625,389.4844 C1589.7813,389.4844 1590.9375,389.1875 1591.6875,388.6406 C1592.2656,388.2344 1592.5938,387.7813 1592.5938,387.3906 C1592.5938,386.9375 1592.2031,386.5469 1591.7344,386.5469 C1591.5156,386.5469 1591.3125,386.625 1591.125,386.8125 C1590.6719,387.2969 1590.6719,387.2969 1590.4844,387.3906 C1590.0625,387.6563 1589.375,387.7813 1588.6094,387.7813 C1586.5625,387.7813 1585.2656,386.6875 1585.2656,384.9844 L1585.2656,383.8906 C1585.2656,382.1094 1586.5156,380.7969 1588.25,380.7969 C1588.8281,380.7969 1589.4375,380.9531 1589.9063,381.2031 C1590.3906,381.4844 1590.5625,381.7031 1590.6563,382.1094 C1590.7188,382.5156 1590.75,382.6406 1590.8906,382.7656 C1591.0313,382.9063 1591.2656,383.0156 1591.4844,383.0156 C1591.75,383.0156 1592.0156,382.875 1592.1875,382.6563 C1592.2969,382.5 1592.3281,382.3125 1592.3281,381.8906 L1592.3281,380.4688 C1592.3281,380.0313 1592.3125,379.9063 1592.2188,379.75 C1592.0625,379.4844 1591.7813,379.3438 1591.4844,379.3438 C1591.1875,379.3438 1590.9844,379.4375 1590.7656,379.75 L1590.5938,379.6719 Z " fill="#000000"/><text fill="#000000" font-family="sans-serif" font-size="14" lengthAdjust="spacing" textLength="23" x="1608.75" y="388.8467">Job</text><line style="stroke:#181818;stroke-width:0.5;" x1="1427.5" x2="1780.5" y1="400" y2="400"/><ellipse cx="1437.5" cy="413.6484" fill="none" rx="3" ry="3" style="stroke:#038048;stroke-width:1.0;"/><text fill="#000000" font-family="sans-serif" font-size="14" lengthAdjust="spacing" textLength="114" x="1446.5" y="416.9951">id : unsigned int</text><line style="stroke:#181818;stroke-width:0.5;" x1="1427.5" x2="1780.5" y1="424.2969" y2="424.2969"/><ellipse cx="1437.5" cy="437.9453" fill="#84BE84" rx="3" ry="3" style="stroke:#038048;stroke-width:1.0;"/><text fill="#000000" font-family="sans-serif" font-size="14" lengthAdjust="spacing" textLength="184" x="1446.5" y="441.292">execute() : virtual void =0</text><ellipse cx="1437.5" cy="454.2422" fill="#84BE84" rx="3" ry="3" style="stroke:#038048;stroke-width:1.0;"/><text fill="#000000" font-family="sans-serif" font-size="14" lengthAdjust="spacing" textLength="329" x="1446.5" y="457.5889">chain_next(system : JobSystem*) : virtual void</text><polygon fill="#4177AF" points="1437.5,466.5391,1433.5,472.5391,1441.5,472.5391" style="stroke:#1963A0;stroke-width:1.0;"/><text fill="#000000" font-family="sans-serif" font-size="14" lengthAdjust="spacing" textLength="91" x="1446.5" y="473.8857">Job() : virtual</text></g><!--reverse link JobSystem to Slave--><g id="link_JobSystem_Slave"><path codeLine="56" d="M884.1316,285.6794 C814.1376,313.1524 754.853,336.422 694.923,359.944 " fill="none" id="JobSystem-backto-Slave" style="stroke:#181818;stroke-width:1.0;"/><polygon fill="#181818" points="895.302,281.295,888.2553,279.7638,884.1316,285.6794,891.1783,287.2107,895.302,281.295" style="stroke:#181818;stroke-width:1.0;"/><polygon fill="#000000" points="803.3457,323.3932,812.8392,322.8242,810.6916,317.3527,803.3457,323.3932" style="stroke:#000000;stroke-width:1.0;"/><text fill="#000000" font-family="sans-serif" font-size="13" lengthAdjust="spacing" textLength="64" x="817" y="326.0669">has many</text></g><!--reverse link JobSystem to HistoryEntry--><g id="link_JobSystem_HistoryEntry"><path codeLine="57" d="M1201.408,294.7398 C1191.848,331.6078 1185.25,357.013 1178.31,383.773 " fill="none" id="JobSystem-backto-HistoryEntry" style="stroke:#181818;stroke-width:1.0;"/><polygon fill="#181818" points="1204.42,283.124,1199.042,287.9279,1201.408,294.7398,1206.7859,289.9359,1204.42,283.124" style="stroke:#181818;stroke-width:1.0;"/><polygon fill="#000000" points="1199.7444,326.4062,1204.8605,318.389,1199.171,316.9129,1199.7444,326.4062" style="stroke:#000000;stroke-width:1.0;"/><text fill="#000000" font-family="sans-serif" font-size="13" lengthAdjust="spacing" textLength="64" x="1210" y="326.0669">has many</text></g><!--reverse link JobSystem to MessageQueue--><g id="link_JobSystem_MessageQueue"><path codeLine="58" d="M1281.1071,295.0577 C1292.1971,360.7657 1291.69,426.676 1259,489 C1244.12,517.369 1222.09,543.421 1198.87,565.808 " fill="none" id="JobSystem-backto-MessageQueue" style="stroke:#181818;stroke-width:1.0;"/><polygon fill="#181818" points="1279.11,283.225,1276.1643,289.807,1281.1071,295.0577,1284.0528,288.4756,1279.11,283.225" style="stroke:#181818;stroke-width:1.0;"/><polygon fill="#000000" points="1290.5469,429.3506,1295.9877,421.5501,1290.3635,419.8418,1290.5469,429.3506" style="stroke:#000000;stroke-width:1.0;"/><text fill="#000000" font-family="sans-serif" font-size="13" lengthAdjust="spacing" textLength="64" x="1301" y="429.0669">has many</text></g><!--reverse link JobSystem to Job--><g id="link_JobSystem_Job"><path codeLine="59" d="M1429.4126,290.3999 C1468.8126,320.4409 1498.81,343.307 1531.09,367.917 " fill="none" id="JobSystem-backto-Job" style="stroke:#181818;stroke-width:1.0;"/><polygon fill="#181818" points="1419.87,283.124,1422.216,289.9428,1429.4126,290.3999,1427.0666,283.5811,1419.87,283.124" style="stroke:#181818;stroke-width:1.0;"/><polygon fill="#000000" points="1484.9762,324.5978,1479.565,316.7768,1476.0013,321.4511,1484.9762,324.5978" style="stroke:#000000;stroke-width:1.0;"/><text fill="#000000" font-family="sans-serif" font-size="13" lengthAdjust="spacing" textLength="64" x="1490" y="326.0669">has many</text></g><!--reverse link Slave to MessageQueue--><g id="link_Slave_MessageQueue"><path codeLine="60" d="M705.4739,493.5333 C776.4229,521.5193 848.663,550.015 920.718,578.437 " fill="none" id="Slave-backto-MessageQueue" style="stroke:#181818;stroke-width:1.0;"/><polygon fill="#181818" points="694.311,489.13,698.4247,495.0526,705.4739,493.5333,701.3602,487.6106,694.311,489.13" style="stroke:#181818;stroke-width:1.0;"/><polygon fill="#000000" points="822.6512,529.4011,815.3155,523.3482,813.1587,528.816,822.6512,529.4011" style="stroke:#000000;stroke-width:1.0;"/><text fill="#000000" font-family="sans-serif" font-size="13" lengthAdjust="spacing" textLength="64" x="827" y="532.0669">has many</text></g><!--SRC=[hLJBRjim4BpxAtWgv8U0dWKtG6iBRO96QIAvxOsWnONDL28Tab9j1CctbmzP3zlmgJTnTtOvCxjKNX2bq9rOfmUbeKIl8uIchqeJpV8tbCI_Ctpty0NVBYEaD8qYeaN9ydd55TjmeAWGV7DZQa9La1fKWweXrqBEKnjpsPSAAg3uMQmDv1wK8Xjuj36FYQ8cDlFrEyc4PFg0NTqCDQ25A7T4GeDrZNCJAa1VxjtAEktlshhwBLE6wM78-viFnbpBGn-5Ixrla6MbOM-z0kwQ1URwoFeu6KUe5epQt0OqjbPMAc0qGWFJnWwTkgp5IYX53HZidHVHnwQ4KkpC3ZWfeQ6Zj6G3bBswzIRWZJkdFVkYBNShTffNKXeQk14TZA-RCtqMZ0VTrM6reqG3PhJjq7fZxRU2UzgFXM-ZKUvsqStQxM5u9j3DWd1Q7CDwAu6uMvKVTBVA4yijlMpK31bA-2zXsXnm-VB_Tj9AF6CojWH_2VbdISoKExDQpNrF_HEq6y2ujfzdbjawu5NPHLmDCi_rP_o4qpXEPkxyk8fNyT9_FwsIv3RvwW-BX_iVt-Fic4lS6q-ppzagZTEELjyKFv7IHzI5bn3cTHF91QV6MS5nJIGZwmBwfH5Q2Au9uo3dcLiWA7VQhTbQYC8f1aw3cXGHCgsKHjc7tcPBo86PePfGrZjZ7l3h2sukQvKPvxndncZKApEM8nU6FUH6M30ssPf9NP72CK2VFdf0lZKIC8Uz3lp0qM3YfsMsvjta1mqjd-xNEmd3PlaZj2KAbOGVqCq9OB0fLt23qLt1MIC6QS_WQej_]--></g></svg>